PathFileType  4	(X/Y/Z) C:\Users\antoi\Documents\MyRepositories\mobilecap\ResultsAnalysis
DataRate	CameraRate	NumFrames	NumMarkers	Units	OrigDataRate	OrigDataStartFrame	OrigNumFrames
100.0	100.0	4	51	mm	100.0	238	271
Frame#	Time	r_knee			r_shank_antsup			r_ankle			r_calc			r_5meta			r_toe			L_knee			L_shank_antsup			L_ankle			L_calc			L_5meta			L_toe			r_sh2			r_sh3			r_sh4			L_sh2			L_sh3			r_thigh1			r_thigh2			r_thigh3			r_thigh4			r_thigh5			L_thigh1			L_thigh2			L_thigh3			L_thigh4			r.ASIS			r.PSIS			L.ASIS			L.PSIS			C7			R_Shoulder			L_Shoulder			R_Sternum			L_Sternum			R_humerus			R_elbow_med			R_elbow_lat			R_forearm			R_wrist_radius			R_wrist_ulna			L_humerus			L_elbow_med			L_elbow_lat			L_forearm			L_wrist_radius			L_wrist_ulna			R_HJC			L_HJC			R_HJC_reg			L_HJC_reg			
		X1	Y1	Z1	X2	Y2	Z2	X3	Y3	Z3	X4	Y4	Z4	X5	Y5	Z5	X6	Y6	Z6	X7	Y7	Z7	X8	Y8	Z8	X9	Y9	Z9	X10	Y10	Z10	X11	Y11	Z11	X12	Y12	Z12	X13	Y13	Z13	X14	Y14	Z14	X15	Y15	Z15	X16	Y16	Z16	X17	Y17	Z17	X18	Y18	Z18	X19	Y19	Z19	X20	Y20	Z20	X21	Y21	Z21	X22	Y22	Z22	X23	Y23	Z23	X24	Y24	Z24	X25	Y25	Z25	X26	Y26	Z26	X27	Y27	Z27	X28	Y28	Z28	X29	Y29	Z29	X30	Y30	Z30	X31	Y31	Z31	X32	Y32	Z32	X33	Y33	Z33	X34	Y34	Z34	X35	Y35	Z35	X36	Y36	Z36	X37	Y37	Z37	X38	Y38	Z38	X39	Y39	Z39	X40	Y40	Z40	X41	Y41	Z41	X42	Y42	Z42	X43	Y43	Z43	X44	Y44	Z44	X45	Y45	Z45	X46	Y46	Z46	X47	Y47	Z47	X48	Y48	Z48	X49	Y49	Z49	X50	Y50	Z50	X51	Y51	Z51	

238	2.37000000	-263.65111	821.07939	-449.74080	-241.92095	765.16819	-434.18360	-263.95459	429.33746	-432.77238	-293.51848	444.64646	-499.91453	-222.94939	314.46800	-401.97318	-157.59968	313.78312	-420.52892	-199.61677	797.35088	-768.29270	-157.70865	718.59476	-767.12218	-188.72126	408.75083	-800.65804	-246.01020	419.95756	-749.64764	-141.84339	287.45103	-797.33011	-81.73464	287.33974	-753.74317	-252.33201	653.90543	-416.24642	-316.97851	773.19372	-443.04723	-331.97239	654.05309	-440.84863	-239.15560	732.97946	-802.94110	-234.84869	611.19034	-821.79802	-204.17019	1070.94138	-398.49312	-206.43943	957.55478	-411.32934	-306.93347	959.03888	-457.94214	-311.44644	1073.27818	-433.05193	-268.63513	937.86572	-423.95892	-155.71686	1073.99419	-800.37657	-151.38695	936.29418	-783.69206	-266.41505	1072.75610	-784.05179	-263.77886	935.55992	-756.87926	-128.99870	1272.72374	-494.59077	-314.44493	1317.57900	-588.84051	-105.62395	1251.45701	-707.04606	-305.08078	1310.11835	-667.16208	-150.50401	1721.64609	-664.85747	-112.82399	1714.23644	-526.53499	-84.53879	1686.44773	-787.47914	-29.60929	1672.50102	-620.58599	-26.71487	1663.40004	-663.73190	-91.91011	1661.19610	-417.50234	-150.46103	1489.40249	-287.70195	-115.38466	1542.92494	-251.77257	-23.71443	1539.67093	-276.21121	99.50926	1502.92161	-327.41543	105.65159	1482.77676	-294.62300	-54.30762	1645.68801	-884.83895	-48.14067	1469.27374	-1028.26273	-26.69928	1536.61128	-1049.17306	66.66168	1544.71595	-1001.93492	158.88572	1538.69265	-918.10919	176.55906	1512.43198	-943.20080	-215.96752	1194.79967	-498.41599	-194.27443	1177.05206	-704.02182	-202.09439	1211.65473	-527.06132	-185.34074	1198.30557	-667.19498	
239	2.38000000	-261.25508	824.55207	-447.49234	-237.47052	768.24302	-432.94098	-262.61959	432.85318	-431.21307	-293.95216	448.51260	-497.54027	-221.82481	317.76994	-401.46855	-157.06281	316.54541	-422.13257	-198.67074	801.19224	-769.03986	-157.11192	722.58678	-767.54742	-187.51222	413.08058	-802.28565	-245.36272	423.88138	-751.16279	-140.73206	291.28473	-797.60088	-81.03420	291.52547	-753.81833	-248.33377	657.04057	-415.25560	-312.91463	776.79575	-439.15008	-328.61904	657.72284	-436.60350	-238.62220	737.05127	-803.78026	-234.23226	615.19219	-822.56351	-205.60795	1075.10129	-397.47986	-206.76176	961.72420	-410.19878	-306.51562	962.14099	-458.22865	-312.60555	1076.04834	-433.25672	-268.52930	941.20922	-423.61801	-155.99720	1078.29691	-800.50413	-150.78312	940.65564	-783.94957	-266.90826	1076.70388	-784.69874	-263.43880	938.94017	-758.17983	-129.68371	1276.24548	-495.46462	-315.37246	1320.93757	-587.94540	-106.56020	1254.92226	-707.26590	-305.82335	1313.16145	-666.73045	-151.47042	1725.49733	-664.94758	-112.91649	1717.36609	-526.21488	-86.20247	1689.18374	-788.35169	-30.40325	1675.77115	-621.20387	-27.61627	1666.66042	-664.25718	-93.72690	1663.03519	-416.81364	-158.49365	1489.24576	-292.13269	-123.03776	1540.99751	-254.40875	-30.97642	1535.46456	-277.31446	92.45252	1494.69317	-325.85208	97.40034	1474.47342	-293.26553	-57.26377	1645.06274	-885.42128	-55.66244	1463.77711	-1022.83036	-32.38787	1529.74385	-1046.02379	62.17088	1535.36047	-999.73314	155.27353	1527.35364	-916.95057	171.53045	1499.97446	-941.97574	-216.19670	1198.16626	-498.33096	-195.29462	1180.40921	-704.01805	-202.87037	1215.52158	-527.79192	-185.94184	1201.74205	-667.41749	
240	2.39000000	-259.00374	827.14389	-445.40567	-232.86953	770.46550	-432.00702	-261.02286	435.62563	-428.90941	-294.47785	451.42162	-494.50452	-220.09227	320.32518	-400.58132	-156.16956	318.41601	-423.62765	-197.20928	803.75159	-769.61599	-155.88125	725.35217	-767.97218	-186.40458	416.41286	-803.87185	-245.05976	426.80916	-752.91057	-140.17663	294.05552	-798.24687	-81.07618	294.20303	-753.78810	-244.06155	659.27423	-414.30758	-308.52885	779.74103	-434.65749	-325.06280	660.70565	-431.24847	-237.39822	740.05729	-804.61793	-233.12800	618.14664	-823.37604	-206.93863	1078.02938	-396.92756	-207.34475	964.66690	-409.35973	-306.37798	964.32234	-458.56528	-313.72249	1077.90894	-433.65077	-268.66305	943.61582	-423.31738	-156.18725	1081.47308	-800.29950	-149.75078	943.97674	-784.25138	-267.37120	1078.92385	-786.50339	-262.65209	941.11202	-759.68219	-130.21405	1278.75895	-496.21328	-316.02098	1323.31623	-587.40688	-107.41475	1257.34833	-707.21665	-306.70024	1315.25073	-666.59409	-152.71806	1728.51773	-665.12317	-113.12395	1719.52631	-525.88794	-87.54283	1691.13703	-788.88093	-31.70755	1677.76507	-622.62038	-29.04110	1668.96492	-664.43169	-94.93407	1664.24965	-416.37633	-165.24981	1488.56178	-296.90495	-129.46470	1538.78656	-257.21234	-36.99790	1531.08510	-279.28172	86.18245	1486.50601	-325.78735	90.27904	1466.19378	-293.28440	-60.17840	1644.11507	-885.70491	-62.07937	1457.76581	-1016.68344	-36.80627	1522.42234	-1042.15069	58.64736	1525.47666	-996.51385	151.76611	1515.69368	-913.99695	166.93103	1487.32194	-938.79038	-216.49170	1200.61441	-498.25371	-196.15739	1182.70596	-703.98445	-203.23398	1218.48606	-527.97763	-186.85620	1204.31857	-667.08561	
241	2.40000000	-257.09876	828.82527	-443.59188	-228.59454	771.78162	-431.32174	-259.22869	437.49808	-426.27581	-294.86188	453.14437	-490.87467	-217.72602	322.13001	-399.31377	-154.73308	319.69608	-424.61856	-195.40155	805.19185	-769.96770	-154.30737	726.92731	-768.24234	-185.49674	418.43934	-805.12513	-244.98722	428.73257	-754.87479	-140.07248	295.65405	-799.08697	-81.57325	295.48930	-753.80514	-239.85001	660.59669	-413.41586	-304.23646	781.88731	-430.23941	-321.37846	662.95555	-425.67377	-235.53805	741.87752	-805.23496	-231.49673	620.07365	-824.45293	-207.89868	1079.78792	-396.69430	-207.97803	966.36492	-408.68417	-306.44646	965.56970	-458.73897	-314.44834	1079.10047	-434.05382	-268.95453	945.04960	-423.12316	-156.25592	1083.58644	-799.93146	-148.53059	946.14285	-784.28185	-267.59761	1079.65397	-789.44282	-261.65568	942.20342	-761.31632	-130.63492	1280.39849	-496.79368	-316.67016	1324.97467	-587.43799	-108.43934	1258.94663	-707.03329	-307.59162	1316.68408	-666.53434	-154.33644	1730.47873	-665.56916	-113.46520	1720.72602	-525.49190	-88.65216	1692.12497	-789.09940	-33.57464	1678.86084	-624.04804	-31.62730	1670.15928	-663.54403	-95.74776	1663.93188	-417.16956	-170.66300	1487.22961	-301.79111	-134.56210	1535.96976	-260.09747	-41.74809	1526.13834	-281.73803	80.89630	1478.18660	-327.03127	84.32127	1457.69588	-294.32018	-62.93655	1642.57452	-885.83246	-67.49629	1451.36196	-1010.46726	-40.14879	1514.63964	-1037.90908	55.78580	1515.19883	-992.43514	148.35174	1503.86683	-909.66252	162.68630	1474.61551	-933.88034	-217.00308	1202.32003	-498.24469	-197.05143	1184.19655	-703.99385	-203.72166	1220.63706	-528.08191	-187.81782	1206.10965	-666.66505	
